<svg width="280" height="80" x="0px" y="0px" viewBox="0 0 218 122" xmlns="http://www.w3.org/2000/svg" version="1.1" style="transform: translate(0,0)"><rect x="0" y="0" width="218" height="122" style="fill:#ffffff;"/><g transform="translate(10, 10)" style="fill:#000000;"><rect x="0" y="0" width="2" height="80"/><rect x="4" y="0" width="2" height="80"/><rect x="8" y="0" width="6" height="80"/><rect x="16" y="0" width="2" height="80"/><rect x="24" y="0" width="2" height="80"/><rect x="28" y="0" width="2" height="80"/><rect x="32" y="0" width="6" height="80"/><rect x="44" y="0" width="6" height="80"/><rect x="52" y="0" width="6" height="80"/><rect x="60" y="0" width="2" height="80"/><rect x="68" y="0" width="2" height="80"/><rect x="72" y="0" width="2" height="80"/><rect x="80" y="0" width="6" height="80"/><rect x="88" y="0" width="2" height="80"/><rect x="96" y="0" width="6" height="80"/><rect x="108" y="0" width="2" height="80"/><rect x="112" y="0" width="2" height="80"/><rect x="116" y="0" width="2" height="80"/><rect x="124" y="0" width="2" height="80"/><rect x="128" y="0" width="2" height="80"/><rect x="132" y="0" width="6" height="80"/><rect x="144" y="0" width="6" height="80"/><rect x="152" y="0" width="2" height="80"/><rect x="156" y="0" width="6" height="80"/><rect x="164" y="0" width="2" height="80"/><rect x="172" y="0" width="6" height="80"/><rect x="184" y="0" width="2" height="80"/><rect x="188" y="0" width="6" height="80"/><rect x="196" y="0" width="2" height="80"/><text style="font: 20px Arial" text-anchor="middle" x="99" y="102">1234567890</text></g></svg>