<svg width="280" height="80" x="0px" y="0px" viewBox="0 0 178 122" xmlns="http://www.w3.org/2000/svg" version="1.1" style="transform: translate(0,0)"><rect x="0" y="0" width="178" height="122" style="fill:#ffffff;"/><g transform="translate(10, 10)" style="fill:#000000;"><rect x="0" y="0" width="4" height="80"/><rect x="6" y="0" width="2" height="80"/><rect x="12" y="0" width="6" height="80"/><rect x="22" y="0" width="2" height="80"/><rect x="26" y="0" width="4" height="80"/><rect x="34" y="0" width="6" height="80"/><rect x="44" y="0" width="2" height="80"/><rect x="52" y="0" width="2" height="80"/><rect x="56" y="0" width="4" height="80"/><rect x="66" y="0" width="6" height="80"/><rect x="78" y="0" width="2" height="80"/><rect x="82" y="0" width="4" height="80"/><rect x="88" y="0" width="4" height="80"/><rect x="100" y="0" width="2" height="80"/><rect x="104" y="0" width="2" height="80"/><rect x="110" y="0" width="2" height="80"/><rect x="118" y="0" width="6" height="80"/><rect x="126" y="0" width="4" height="80"/><rect x="132" y="0" width="4" height="80"/><rect x="142" y="0" width="6" height="80"/><rect x="150" y="0" width="2" height="80"/><rect x="154" y="0" width="4" height="80"/><text style="font: 20px Arial" text-anchor="middle" x="79" y="102">12345678</text></g></svg>