<svg width="280" height="80" x="0px" y="0px" viewBox="0 0 308 122" xmlns="http://www.w3.org/2000/svg" version="1.1" style="transform: translate(0,0)"><rect x="0" y="0" width="308" height="122" style="fill:#ffffff;"/><g transform="translate(10, 10)" style="fill:#000000;"><rect x="0" y="0" width="2" height="80"/><rect x="8" y="0" width="2" height="80"/><rect x="12" y="0" width="6" height="80"/><rect x="20" y="0" width="6" height="80"/><rect x="28" y="0" width="2" height="80"/><rect x="32" y="0" width="6" height="80"/><rect x="40" y="0" width="6" height="80"/><rect x="48" y="0" width="2" height="80"/><rect x="56" y="0" width="2" height="80"/><rect x="60" y="0" width="2" height="80"/><rect x="64" y="0" width="6" height="80"/><rect x="72" y="0" width="2" height="80"/><rect x="76" y="0" width="6" height="80"/><rect x="84" y="0" width="2" height="80"/><rect x="92" y="0" width="2" height="80"/><rect x="96" y="0" width="2" height="80"/><rect x="100" y="0" width="2" height="80"/><rect x="104" y="0" width="6" height="80"/><rect x="116" y="0" width="2" height="80"/><rect x="120" y="0" width="6" height="80"/><rect x="128" y="0" width="6" height="80"/><rect x="136" y="0" width="2" height="80"/><rect x="140" y="0" width="6" height="80"/><rect x="152" y="0" width="2" height="80"/><rect x="156" y="0" width="2" height="80"/><rect x="160" y="0" width="2" height="80"/><rect x="168" y="0" width="6" height="80"/><rect x="176" y="0" width="2" height="80"/><rect x="180" y="0" width="6" height="80"/><rect x="188" y="0" width="2" height="80"/><rect x="192" y="0" width="6" height="80"/><rect x="200" y="0" width="6" height="80"/><rect x="212" y="0" width="2" height="80"/><rect x="216" y="0" width="2" height="80"/><rect x="220" y="0" width="2" height="80"/><rect x="224" y="0" width="2" height="80"/><rect x="228" y="0" width="6" height="80"/><rect x="240" y="0" width="2" height="80"/><rect x="244" y="0" width="6" height="80"/><rect x="252" y="0" width="2" height="80"/><rect x="256" y="0" width="2" height="80"/><rect x="264" y="0" width="2" height="80"/><rect x="268" y="0" width="6" height="80"/><rect x="276" y="0" width="6" height="80"/><rect x="284" y="0" width="2" height="80"/><text style="font: 20px Arial" text-anchor="middle" x="144" y="102">CODE 39</text></g></svg>