<svg width="280" height="80" x="0px" y="0px" viewBox="0 0 226 122" xmlns="http://www.w3.org/2000/svg" version="1.1" style="transform: translate(0,0)"><rect x="0" y="0" width="226" height="122" style="fill:#ffffff;"/><g transform="translate(10, 10)" style="fill:#000000;"><rect x="0" y="0" width="4" height="80"/><rect x="6" y="0" width="2" height="80"/><rect x="12" y="0" width="2" height="80"/><rect x="18" y="0" width="2" height="80"/><rect x="24" y="0" width="4" height="80"/><rect x="30" y="0" width="2" height="80"/><rect x="36" y="0" width="2" height="80"/><rect x="42" y="0" width="4" height="80"/><rect x="48" y="0" width="2" height="80"/><rect x="54" y="0" width="2" height="80"/><rect x="60" y="0" width="2" height="80"/><rect x="66" y="0" width="4" height="80"/><rect x="72" y="0" width="4" height="80"/><rect x="78" y="0" width="2" height="80"/><rect x="84" y="0" width="4" height="80"/><rect x="90" y="0" width="2" height="80"/><rect x="96" y="0" width="2" height="80"/><rect x="102" y="0" width="2" height="80"/><rect x="108" y="0" width="4" height="80"/><rect x="114" y="0" width="2" height="80"/><rect x="120" y="0" width="4" height="80"/><rect x="126" y="0" width="2" height="80"/><rect x="132" y="0" width="4" height="80"/><rect x="138" y="0" width="4" height="80"/><rect x="144" y="0" width="2" height="80"/><rect x="150" y="0" width="2" height="80"/><rect x="156" y="0" width="4" height="80"/><rect x="162" y="0" width="4" height="80"/><rect x="168" y="0" width="4" height="80"/><rect x="174" y="0" width="2" height="80"/><rect x="180" y="0" width="4" height="80"/><rect x="186" y="0" width="2" height="80"/><rect x="192" y="0" width="2" height="80"/><rect x="198" y="0" width="2" height="80"/><rect x="204" y="0" width="2" height="80"/><text style="font: 20px Arial" text-anchor="middle" x="103" y="102">12345674</text></g></svg>