<svg width="280" height="80" x="0px" y="0px" viewBox="0 0 114 122" xmlns="http://www.w3.org/2000/svg" version="1.1" style="transform: translate(0,0)"><rect x="0" y="0" width="114" height="122" style="fill:#ffffff;"/><g transform="translate(10, 10)" style="fill:#000000;"><rect x="0" y="0" width="2" height="80"/><rect x="4" y="0" width="4" height="80"/><rect x="10" y="0" width="4" height="80"/><rect x="20" y="0" width="2" height="80"/><rect x="24" y="0" width="2" height="80"/><rect x="28" y="0" width="2" height="80"/><rect x="36" y="0" width="4" height="80"/><rect x="42" y="0" width="2" height="80"/><rect x="48" y="0" width="6" height="80"/><rect x="56" y="0" width="2" height="80"/><rect x="60" y="0" width="2" height="80"/><rect x="68" y="0" width="2" height="80"/><rect x="72" y="0" width="4" height="80"/><rect x="78" y="0" width="2" height="80"/><rect x="82" y="0" width="6" height="80"/><rect x="92" y="0" width="2" height="80"/><text style="font: 20px Arial" text-anchor="middle" x="47" y="102">54495</text></g></svg>