<svg width="280" height="80" x="0px" y="0px" viewBox="0 0 354 122" xmlns="http://www.w3.org/2000/svg" version="1.1" style="transform: translate(0,0)"><rect x="0" y="0" width="354" height="122" style="fill:#ffffff;"/><g transform="translate(10, 10)" style="fill:#000000;"><rect x="0" y="0" width="4" height="80"/><rect x="6" y="0" width="2" height="80"/><rect x="12" y="0" width="2" height="80"/><rect x="22" y="0" width="4" height="80"/><rect x="32" y="0" width="2" height="80"/><rect x="36" y="0" width="2" height="80"/><rect x="44" y="0" width="2" height="80"/><rect x="48" y="0" width="4" height="80"/><rect x="56" y="0" width="2" height="80"/><rect x="66" y="0" width="4" height="80"/><rect x="74" y="0" width="2" height="80"/><rect x="78" y="0" width="2" height="80"/><rect x="88" y="0" width="4" height="80"/><rect x="96" y="0" width="2" height="80"/><rect x="100" y="0" width="2" height="80"/><rect x="110" y="0" width="2" height="80"/><rect x="118" y="0" width="8" height="80"/><rect x="128" y="0" width="2" height="80"/><rect x="132" y="0" width="4" height="80"/><rect x="138" y="0" width="4" height="80"/><rect x="146" y="0" width="4" height="80"/><rect x="154" y="0" width="6" height="80"/><rect x="162" y="0" width="2" height="80"/><rect x="170" y="0" width="4" height="80"/><rect x="176" y="0" width="2" height="80"/><rect x="184" y="0" width="8" height="80"/><rect x="194" y="0" width="2" height="80"/><rect x="198" y="0" width="2" height="80"/><rect x="204" y="0" width="2" height="80"/><rect x="210" y="0" width="8" height="80"/><rect x="220" y="0" width="4" height="80"/><rect x="228" y="0" width="2" height="80"/><rect x="232" y="0" width="2" height="80"/><rect x="242" y="0" width="2" height="80"/><rect x="252" y="0" width="2" height="80"/><rect x="258" y="0" width="4" height="80"/><rect x="264" y="0" width="4" height="80"/><rect x="272" y="0" width="4" height="80"/><rect x="278" y="0" width="4" height="80"/><rect x="286" y="0" width="6" height="80"/><rect x="294" y="0" width="2" height="80"/><rect x="302" y="0" width="4" height="80"/><rect x="308" y="0" width="4" height="80"/><rect x="318" y="0" width="6" height="80"/><rect x="326" y="0" width="2" height="80"/><rect x="330" y="0" width="4" height="80"/><text style="font: 20px Arial" text-anchor="middle" x="167" y="102">Hello World!</text></g></svg>