<svg width="280" height="80" x="0px" y="0px" viewBox="0 0 242 122" xmlns="http://www.w3.org/2000/svg" version="1.1" style="transform: translate(0,0)"><rect x="0" y="0" width="242" height="122" style="fill:#ffffff;"/><g transform="translate(10, 10)" style="fill:#000000;"><text style="font: 20px Arial" text-anchor="start" x="0" y="102">1</text></g><g transform="translate(26, 10)" style="fill:#000000;"><rect x="0" y="0" width="2" height="92"/><rect x="4" y="0" width="2" height="92"/><rect x="10" y="0" width="4" height="92"/><rect x="18" y="0" width="2" height="92"/><text style="font: 20px Arial" text-anchor="middle" x="10" y="114"></text></g><g transform="translate(46, 10)" style="fill:#000000;"><rect x="4" y="0" width="2" height="80"/><rect x="10" y="0" width="4" height="80"/><rect x="16" y="0" width="8" height="80"/><rect x="26" y="0" width="2" height="80"/><rect x="30" y="0" width="2" height="80"/><rect x="38" y="0" width="4" height="80"/><rect x="44" y="0" width="4" height="80"/><rect x="54" y="0" width="2" height="80"/><rect x="58" y="0" width="2" height="80"/><rect x="62" y="0" width="8" height="80"/><text style="font: 20px Arial" text-anchor="middle" x="35" y="102">23456</text></g><g transform="translate(116, 10)" style="fill:#000000;"><rect x="2" y="0" width="2" height="92"/><rect x="6" y="0" width="2" height="92"/><text style="font: 20px Arial" text-anchor="middle" x="5" y="114"></text></g><g transform="translate(126, 10)" style="fill:#000000;"><rect x="0" y="0" width="2" height="80"/><rect x="8" y="0" width="2" height="80"/><rect x="14" y="0" width="2" height="80"/><rect x="20" y="0" width="2" height="80"/><rect x="28" y="0" width="6" height="80"/><rect x="36" y="0" width="2" height="80"/><rect x="42" y="0" width="6" height="80"/><rect x="52" y="0" width="2" height="80"/><rect x="56" y="0" width="4" height="80"/><rect x="64" y="0" width="4" height="80"/><text style="font: 20px Arial" text-anchor="middle" x="35" y="102">78901</text></g><g transform="translate(196, 10)" style="fill:#000000;"><rect x="0" y="0" width="4" height="92"/><rect x="6" y="0" width="4" height="92"/><rect x="14" y="0" width="2" height="92"/><rect x="18" y="0" width="2" height="92"/><text style="font: 20px Arial" text-anchor="middle" x="10" y="114"></text></g><g transform="translate(216, 10)" style="fill:#000000;"><text style="font: 20px Arial" text-anchor="end" x="15" y="102">2</text></g></svg>