<svg width="187" height="91" x="0px" y="0px" viewBox="0 0 332 111" xmlns="http://www.w3.org/2000/svg" version="1.1" style="transform: translate(0,0)"><rect x="0" y="0" width="332" height="111" style="fill:#ffffff;"/><g transform="translate(10, 10)" style="fill:#000000;"><rect x="0" y="0" width="4" height="91"/><rect x="6" y="0" width="2" height="91"/><rect x="12" y="0" width="2" height="91"/><rect x="22" y="0" width="2" height="91"/><rect x="26" y="0" width="2" height="91"/><rect x="34" y="0" width="4" height="91"/><rect x="44" y="0" width="2" height="91"/><rect x="52" y="0" width="2" height="91"/><rect x="56" y="0" width="4" height="91"/><rect x="66" y="0" width="2" height="91"/><rect x="74" y="0" width="2" height="91"/><rect x="82" y="0" width="4" height="91"/><rect x="88" y="0" width="2" height="91"/><rect x="94" y="0" width="4" height="91"/><rect x="100" y="0" width="6" height="91"/><rect x="110" y="0" width="2" height="91"/><rect x="116" y="0" width="2" height="91"/><rect x="120" y="0" width="4" height="91"/><rect x="132" y="0" width="2" height="91"/><rect x="138" y="0" width="2" height="91"/><rect x="148" y="0" width="4" height="91"/><rect x="154" y="0" width="2" height="91"/><rect x="164" y="0" width="2" height="91"/><rect x="168" y="0" width="4" height="91"/><rect x="176" y="0" width="2" height="91"/><rect x="182" y="0" width="4" height="91"/><rect x="188" y="0" width="6" height="91"/><rect x="198" y="0" width="2" height="91"/><rect x="202" y="0" width="6" height="91"/><rect x="210" y="0" width="8" height="91"/><rect x="220" y="0" width="2" height="91"/><rect x="224" y="0" width="4" height="91"/><rect x="232" y="0" width="6" height="91"/><rect x="242" y="0" width="2" height="91"/><rect x="250" y="0" width="2" height="91"/><rect x="254" y="0" width="4" height="91"/><rect x="264" y="0" width="6" height="91"/><rect x="272" y="0" width="2" height="91"/><rect x="276" y="0" width="4" height="91"/><rect x="286" y="0" width="4" height="91"/><rect x="296" y="0" width="6" height="91"/><rect x="304" y="0" width="2" height="91"/><rect x="308" y="0" width="4" height="91"/></g></svg>