<svg width="280" height="80" x="0px" y="0px" viewBox="0 0 154 122" xmlns="http://www.w3.org/2000/svg" version="1.1" style="transform: translate(0,0)"><rect x="0" y="0" width="154" height="122" style="fill:#ffffff;"/><g transform="translate(10, 10)" style="fill:#000000;"><rect x="0" y="0" width="2" height="92"/><rect x="4" y="0" width="2" height="92"/><text style="font: 20px Arial" text-anchor="middle" x="3" y="114"></text></g><g transform="translate(16, 10)" style="fill:#000000;"><rect x="6" y="0" width="2" height="80"/><rect x="10" y="0" width="4" height="80"/><rect x="16" y="0" width="2" height="80"/><rect x="20" y="0" width="8" height="80"/><rect x="30" y="0" width="8" height="80"/><rect x="40" y="0" width="2" height="80"/><rect x="44" y="0" width="4" height="80"/><rect x="50" y="0" width="6" height="80"/><text style="font: 20px Arial" text-anchor="middle" x="28" y="102">9638</text></g><g transform="translate(72, 10)" style="fill:#000000;"><rect x="2" y="0" width="2" height="92"/><rect x="6" y="0" width="2" height="92"/><text style="font: 20px Arial" text-anchor="middle" x="5" y="114"></text></g><g transform="translate(82, 10)" style="fill:#000000;"><rect x="0" y="0" width="2" height="80"/><rect x="6" y="0" width="6" height="80"/><rect x="14" y="0" width="6" height="80"/><rect x="24" y="0" width="2" height="80"/><rect x="28" y="0" width="2" height="80"/><rect x="36" y="0" width="2" height="80"/><rect x="42" y="0" width="2" height="80"/><rect x="46" y="0" width="6" height="80"/><text style="font: 20px Arial" text-anchor="middle" x="28" y="102">5074</text></g><g transform="translate(138, 10)" style="fill:#000000;"><rect x="0" y="0" width="2" height="92"/><rect x="4" y="0" width="2" height="92"/><text style="font: 20px Arial" text-anchor="middle" x="3" y="114"></text></g></svg>