<svg width="280" height="80" x="0px" y="0px" viewBox="0 0 290 122" xmlns="http://www.w3.org/2000/svg" version="1.1" style="transform: translate(0,0)"><rect x="0" y="0" width="290" height="122" style="fill:#ffffff;"/><g transform="translate(10, 10)" style="fill:#000000;"><rect x="0" y="0" width="2" height="80"/><rect x="4" y="0" width="2" height="80"/><rect x="8" y="0" width="6" height="80"/><rect x="20" y="0" width="2" height="80"/><rect x="24" y="0" width="2" height="80"/><rect x="32" y="0" width="2" height="80"/><rect x="36" y="0" width="6" height="80"/><rect x="44" y="0" width="2" height="80"/><rect x="48" y="0" width="2" height="80"/><rect x="52" y="0" width="6" height="80"/><rect x="64" y="0" width="2" height="80"/><rect x="72" y="0" width="6" height="80"/><rect x="80" y="0" width="2" height="80"/><rect x="88" y="0" width="2" height="80"/><rect x="92" y="0" width="6" height="80"/><rect x="100" y="0" width="6" height="80"/><rect x="108" y="0" width="2" height="80"/><rect x="116" y="0" width="2" height="80"/><rect x="124" y="0" width="2" height="80"/><rect x="128" y="0" width="6" height="80"/><rect x="136" y="0" width="2" height="80"/><rect x="140" y="0" width="6" height="80"/><rect x="152" y="0" width="2" height="80"/><rect x="160" y="0" width="6" height="80"/><rect x="168" y="0" width="2" height="80"/><rect x="172" y="0" width="2" height="80"/><rect x="180" y="0" width="6" height="80"/><rect x="188" y="0" width="6" height="80"/><rect x="196" y="0" width="2" height="80"/><rect x="200" y="0" width="2" height="80"/><rect x="204" y="0" width="6" height="80"/><rect x="216" y="0" width="2" height="80"/><rect x="224" y="0" width="2" height="80"/><rect x="232" y="0" width="6" height="80"/><rect x="244" y="0" width="6" height="80"/><rect x="252" y="0" width="2" height="80"/><rect x="256" y="0" width="2" height="80"/><rect x="260" y="0" width="6" height="80"/><rect x="268" y="0" width="2" height="80"/><text style="font: 20px Arial" text-anchor="middle" x="135" y="102">15400141288763</text></g></svg>