<svg width="280" height="80" x="0px" y="0px" viewBox="0 0 154 122" xmlns="http://www.w3.org/2000/svg" version="1.1" style="transform: translate(0,0)"><rect x="0" y="0" width="154" height="122" style="fill:#ffffff;"/><g transform="translate(10, 10)" style="fill:#000000;"><text style="font: 20px Arial" text-anchor="start" x="0" y="102">0</text></g><g transform="translate(26, 10)" style="fill:#000000;"><rect x="0" y="0" width="2" height="92"/><rect x="4" y="0" width="2" height="92"/><text style="font: 20px Arial" text-anchor="middle" x="3" y="114"></text></g><g transform="translate(32, 10)" style="fill:#000000;"><rect x="2" y="0" width="4" height="80"/><rect x="10" y="0" width="4" height="80"/><rect x="18" y="0" width="2" height="80"/><rect x="24" y="0" width="4" height="80"/><rect x="30" y="0" width="8" height="80"/><rect x="40" y="0" width="2" height="80"/><rect x="46" y="0" width="6" height="80"/><rect x="54" y="0" width="2" height="80"/><rect x="58" y="0" width="6" height="80"/><rect x="68" y="0" width="2" height="80"/><rect x="72" y="0" width="2" height="80"/><rect x="76" y="0" width="8" height="80"/><text style="font: 20px Arial" text-anchor="middle" x="42" y="102">123456</text></g><g transform="translate(116, 10)" style="fill:#000000;"><rect x="2" y="0" width="2" height="92"/><rect x="6" y="0" width="2" height="92"/><rect x="10" y="0" width="2" height="92"/><text style="font: 20px Arial" text-anchor="middle" x="6" y="114"></text></g><g transform="translate(128, 10)" style="fill:#000000;"><text style="font: 20px Arial" text-anchor="end" x="15" y="102">5</text></g></svg>